<svg clip-rule="evenodd" fill-rule="evenodd" height="512" image-rendering="optimizeQuality" shape-rendering="geometricPrecision" text-rendering="geometricPrecision" viewBox="0 0 1707 1707" width="512" xmlns="http://www.w3.org/2000/svg"><g id="Layer_x0020_1"><g id="_622426120"><path d="m794 1005c-15 0-24-15-19-28l80-183c-104-73-163-175-163-282 0-212 227-384 507-384s508 172 508 384c0 211-228 383-508 383-27 0-53-1-79-4-9 1-315 114-326 114z" fill="#21abcd"/><path d="" fill="#fff"/><g><path d="m951 1579c-342 0-1165-862-899-1069l91-70c1 4 1 8 2 12 16 75 61 168 125 257 15 21 86 108 114 121-5 7-12 13-19 19l-39 33c61 113 258 309 371 371l33-39c4-5 9-10 15-16 24-24 80-6 0 0 5 8 10 15 13 18 96 95 253 194 369 218l12 2-71 91c-20 25-55 52-117 52z" fill="#5f99d7"/><g><g fill="#e8edf2"><path d="m143 440 18-14c34-27 90-4 142 43l12 12c26 28 48 56 65 83 50 86 70 192 4 266-28-13-99-100-114-121-64-89-109-182-125-257-1-4-1-8-2-12z"/><path d="m745 1198c158-147 491 113 408 220l-14 18-12-2c-116-24-273-123-369-218-3-3-8-10-13-18z"/></g><path d="m1001 1535c-330 0-1108-803-923-1045l-26 20c-266 207 557 1069 899 1069 62 0 97-27 117-52l7-8c-19 9-44 16-74 16z" fill="#3c87d0"/></g></g><path d="m1162 169c279 0 507 172 507 384 0 71-26 138-70 195 67-65 108-147 108-236 0-212-228-384-508-384-186 0-349 76-437 189 93-90 237-148 400-148z" fill="#1e9ab9"/></g><g fill="#fff"><path d="m1055 645c-84 0-113-99-73-102 37-4 7 62 73 62s67-79 31-84c-9-1-43 6-43-20 0-27 35-19 40-20 24-6 24-63-29-63-61 0-34 64-71 58-49-9 18-136 113-88 40 21 56 70 28 109 51 43 23 148-69 148z"/><path d="m1278 645c-88 0-114-99-75-103 37-3 5 63 74 63 74 0 77-114 7-114-42 0-56 54-83 41-7-3-11-11-11-19l8-116c1-11 10-19 20-19h126c26 0 26 40 0 40h-107l-4 50c92-62 188 57 120 142-19 23-44 35-75 35z"/><path d="m1507 645c-122 0-110-182-68-234 39-48 123-44 147 15 11 24-26 40-36 16-14-32-85-43-97 38 84-67 178 27 133 117-16 31-44 48-79 48zm-55-102c10 90 105 76 105 6 0-65-74-70-105-6z"/><path d="m883 594c-26 0-20-34-20-62-28 0-62 6-62-20s34-20 62-20c0-28-6-62 20-62 27 0 20 34 20 62 28 0 63-6 63 20s-35 20-63 20c0 28 7 62-20 62z"/></g></g></svg>